<?xml version="1.0" encoding="utf-8" ?>
<svg xmlns="http://www.w3.org/2000/svg" xmlns:xlink="http://www.w3.org/1999/xlink" width="64" height="64" viewBox="0 0 64 64">
	<defs>
		<linearGradient id="linearGradient1010863622" gradientTransform="matrix(64 0 0 64 0 0)" gradientUnits="userSpaceOnUse" x1="0" y1="0.5" x2="1" y2="0.5">
			<stop offset="0" stop-color="rgb(37, 99, 235)"/>
			<stop offset="1" stop-color="rgb(30, 64, 175)"/>
		</linearGradient>
	</defs>
	<rect width="64" height="64" rx="16" ry="16" transform="matrix(1 0 0 1 0 0)" fill="url(#linearGradient1010863622)"/>
	<defs>
		<clipPath id="clipPath9468520749">
			<path d="M0 0L32 0L32 32L0 32L0 0Z" fill-rule="nonzero" transform="matrix(1 0 0 1 16 16)"/>
		</clipPath>
	</defs>
	<g clip-path="url(#clipPath9468520749)">
		<rect width="26" height="24" rx="3" ry="3" stroke-width="2" stroke-linejoin="round" transform="matrix(1 0 0 1 19 21)" stroke="rgb(255, 255, 255)" fill="transparent"/>
		<circle cx="1.5" cy="1.5" r="1.5" transform="matrix(1 0 0 1 33 29)" fill="rgb(255, 255, 255)"/>
		<circle cx="1.5" cy="1.5" r="1.5" transform="matrix(1 0 0 1 38 29)" fill="rgb(255, 255, 255)"/>
		<circle cx="1.5" cy="1.5" r="1.5" transform="matrix(1 0 0 1 33 34)" fill="rgb(255, 255, 255)"/>
		<circle cx="1.5" cy="1.5" r="1.5" transform="matrix(1 0 0 1 38 34)" fill="rgb(255, 255, 255)"/>
		<circle cx="1.5" cy="1.5" r="1.5" transform="matrix(1 0 0 1 23 34)" fill="rgb(255, 255, 255)"/>
		<circle cx="1.5" cy="1.5" r="1.5" transform="matrix(1 0 0 1 28 34)" fill="rgb(255, 255, 255)"/>
		<circle cx="1.5" cy="1.5" r="1.5" transform="matrix(1 0 0 1 23 39)" fill="rgb(255, 255, 255)"/>
		<circle cx="1.5" cy="1.5" r="1.5" transform="matrix(1 0 0 1 28 39)" fill="rgb(255, 255, 255)"/>
		<circle cx="1.5" cy="1.5" r="1.5" transform="matrix(1 0 0 1 33 39)" fill="rgb(255, 255, 255)"/>
		<path d="M0 -1C-0.55228 -1 -1 -0.55228 -1 0L-1 2C-1 2.55228 -0.55228 3 0 3C0.55228 3 1 2.55228 1 2L1 0C1 -0.55228 0.55228 -1 0 -1ZM16 -1C15.4477 -1 15 -0.55228 15 0L15 2C15 2.55228 15.4477 3 16 3C16.5523 3 17 2.55228 17 2L17 0C17 -0.55228 16.5523 -1 16 -1Z" fill-rule="evenodd" transform="matrix(1 0 0 1 24 19)" fill="rgb(255, 255, 255)"/>
		<path d="M26 1L0 1L0 -1L26 -1L26 1Z" fill-rule="nonzero" transform="matrix(1 0 0 1 19 26)" fill="rgb(255, 255, 255)"/>
	</g>
</svg>
